<?xml version="1.0" encoding="UTF-8" standalone="no"?>
<!-- Created with Inkscape (http://www.inkscape.org/) -->

<svg
   xmlns:dc="http://purl.org/dc/elements/1.1/"
   xmlns:cc="http://creativecommons.org/ns#"
   xmlns:rdf="http://www.w3.org/1999/02/22-rdf-syntax-ns#"
   xmlns:svg="http://www.w3.org/2000/svg"
   xmlns="http://www.w3.org/2000/svg"
   xmlns:sodipodi="http://sodipodi.sourceforge.net/DTD/sodipodi-0.dtd"
   xmlns:inkscape="http://www.inkscape.org/namespaces/inkscape"
   width="1000"
   height="238.50301"
   viewBox="0 0 264.58333 63.103922"
   version="1.1"
   id="svg35288"
   sodipodi:docname="AMD.svg"
   inkscape:version="0.92.2 (5c3e80d, 2017-08-06)">
  <defs
     id="defs35282" />
  <sodipodi:namedview
     id="base"
     pagecolor="#ffffff"
     bordercolor="#666666"
     borderopacity="1.0"
     inkscape:pageopacity="0.0"
     inkscape:pageshadow="2"
     inkscape:zoom="0.49497475"
     inkscape:cx="606.05567"
     inkscape:cy="91.327771"
     inkscape:document-units="px"
     inkscape:current-layer="layer1"
     showgrid="false"
     units="px"
     inkscape:window-width="1366"
     inkscape:window-height="705"
     inkscape:window-x="-8"
     inkscape:window-y="-8"
     inkscape:window-maximized="1" />
  <metadata
     id="metadata35285">
    <rdf:RDF>
      <cc:Work
         rdf:about="">
        <dc:format>image/svg+xml</dc:format>
        <dc:type
           rdf:resource="http://purl.org/dc/dcmitype/StillImage" />
        <dc:title></dc:title>
      </cc:Work>
    </rdf:RDF>
  </metadata>
  <g
     inkscape:label="Layer 1"
     inkscape:groupmode="layer"
     id="layer1"
     transform="translate(0,-233.89607)">
    <path
       inkscape:connector-curvature="0"
       d="M 62.140042,292.80634 H 47.46625 L 42.977263,281.97893 H 18.521826 l -4.089797,10.82741 H 0 L 22.048722,238.1216 H 37.844677 Z M 30.147617,251.18871 22.12975,272.43607 h 16.838414 z"
       id="path7"
       style="stroke-width:0.33072916" />
    <path
       inkscape:connector-curvature="0"
       d="m 115.443,238.1216 h 11.86656 v 54.68474 H 113.67724 V 258.64863 L 98.924071,275.80587 H 96.840147 L 82.087972,258.64863 v 34.15705 H 68.455647 V 238.1216 h 11.866562 l 17.559073,20.2856 z"
       id="path9"
       style="stroke-width:0.33072916" />
    <path
       inkscape:connector-curvature="0"
       d="m 161.85059,238.1216 c 19.96413,0 30.22567,12.42648 30.22567,27.42042 0,15.71526 -9.94106,27.26432 -31.75,27.26432 H 137.71463 V 238.1216 Z m -10.50462,44.66199 h 8.8986 c 13.71104,0 17.80083,-9.30308 17.80083,-17.3226 0,-9.38212 -5.05222,-17.31797 -17.96124,-17.31797 h -8.73852 v 34.64057 z"
       id="path11"
       style="stroke-width:0.33072916" />
    <polygon
       points="800,189.21 748.028,137.235 748.028,51.981 662.769,51.981 610.797,0 800,0 "
       id="polygon15"
       style="fill-opacity:1"
       transform="matrix(0.33072917,0,0,0.33072917,0,233.8962)" />
    <polygon
       points="684.089,190.802 737.594,137.296 662.708,137.296 662.708,62.397 609.2,115.903 609.2,190.802 "
       id="polygon17"
       style="fill-opacity:1"
       transform="matrix(0.33072917,0,0,0.33072917,0,233.8962)" />
  </g>
</svg>
